<svg version="1.1" id="Layer_1" xmlns="http://www.w3.org/2000/svg" xmlns:xlink="http://www.w3.org/1999/xlink" x="0px" y="0px"
	 width="100%" viewBox="0 0 500 500" enable-background="new 0 0 500 500" xml:space="preserve">
<path fill="#000000" opacity="1.000000" stroke="none" 
	d="
M1.000000,198.000000 
	C1.000000,132.016357 1.000000,66.532707 1.000000,1.024531 
	C167.608688,1.024531 334.217377,1.024531 500.913025,1.024531 
	C500.913025,167.567047 500.913025,334.134155 500.913025,500.850647 
	C334.333435,500.850647 167.666733,500.850647 1.000000,500.850647 
	C1.000000,400.115814 1.000000,299.307892 1.000000,198.000000 
M172.660934,65.217026 
	C153.526566,73.956268 136.150803,85.504311 121.521889,100.506516 
	C93.140495,129.612091 75.241310,164.260300 69.971909,204.853790 
	C67.182533,226.342148 66.558174,247.932312 67.765724,269.635315 
	C68.777756,287.824219 70.394302,305.820740 75.527405,323.368744 
	C85.163994,356.312347 102.312378,384.821442 127.942642,407.553314 
	C158.515549,434.668854 193.746964,451.620117 235.366196,454.332275 
	C261.550995,456.038635 286.998505,453.419952 311.706024,445.064209 
	C352.471893,431.277802 383.419708,404.958008 406.271912,368.807831 
	C422.134155,343.715210 431.894806,316.420319 433.814606,286.761200 
	C434.996613,268.500397 435.309753,250.125488 434.820557,231.833694 
	C434.466278,218.586258 433.094513,205.206436 430.541107,192.206879 
	C422.390778,150.713013 400.648865,116.998604 368.830872,89.728561 
	C341.214966,66.059982 308.720947,52.456963 272.822876,48.629700 
	C238.468307,44.966995 204.995453,50.243275 172.660934,65.217026 
z"/>
<path fill="#032C22" opacity="1.000000" stroke="none" 
	d="
M173.006775,65.067360 
	C204.995453,50.243275 238.468307,44.966995 272.822876,48.629700 
	C308.720947,52.456963 341.214966,66.059982 368.830872,89.728561 
	C400.648865,116.998604 422.390778,150.713013 430.541107,192.206879 
	C433.094513,205.206436 434.466278,218.586258 434.820557,231.833694 
	C435.309753,250.125488 434.996613,268.500397 433.814606,286.761200 
	C431.894806,316.420319 422.134155,343.715210 406.271912,368.807831 
	C383.419708,404.958008 352.471893,431.277802 311.706024,445.064209 
	C286.998505,453.419952 261.550995,456.038635 235.366196,454.332275 
	C193.746964,451.620117 158.515549,434.668854 127.942642,407.553314 
	C102.312378,384.821442 85.163994,356.312347 75.527405,323.368744 
	C70.394302,305.820740 68.777756,287.824219 67.765724,269.635315 
	C66.558174,247.932312 67.182533,226.342148 69.971909,204.853790 
	C75.241310,164.260300 93.140495,129.612091 121.521889,100.506516 
	C136.150803,85.504311 153.526566,73.956268 173.006775,65.067360 
M293.754669,175.943726 
	C308.017578,172.996567 325.184631,155.407440 327.706085,141.157501 
	C328.641998,135.868393 327.499298,134.611938 322.002991,134.886658 
	C305.917816,135.690628 291.252380,148.152725 286.669189,165.034546 
	C286.910858,165.140045 287.152496,165.245529 287.992218,165.053772 
	C291.200623,162.706635 294.196136,159.954727 297.676422,158.124573 
	C301.259644,156.240280 304.136963,158.738998 303.120636,162.685638 
	C302.610291,164.667435 301.276062,166.543152 299.965363,168.188828 
	C297.795227,170.913589 295.342987,173.413635 292.961090,176.019089 
	C292.961090,176.019089 292.987274,175.986816 293.754669,175.943726 
M176.135025,223.951263 
	C172.345581,226.150787 167.841721,227.649628 164.884201,230.665085 
	C147.472168,248.418289 128.691254,246.541840 110.817940,232.670410 
	C108.518898,230.886124 107.813988,228.807419 109.626259,226.191360 
	C121.892319,208.484879 145.002899,197.190430 164.955048,213.690628 
	C166.338364,214.834610 168.785889,215.789444 170.377335,215.390717 
	C176.688278,213.809525 182.855560,211.655075 189.667389,209.528473 
	C178.633453,204.804077 168.411484,199.811829 156.664993,197.628326 
	C134.059174,193.426224 126.260307,180.275436 125.239334,158.919647 
	C125.045792,154.871414 126.813332,152.563736 131.062866,152.585983 
	C148.682358,152.678192 162.205063,158.697922 169.556015,175.676849 
	C170.801300,178.553207 171.603546,181.675446 172.207092,184.762939 
	C173.117783,189.421860 175.502945,192.635345 179.991348,194.310165 
	C185.765961,196.464920 191.446945,198.886765 197.277954,200.871262 
	C214.089798,206.592880 229.343094,214.785049 241.579330,227.967987 
	C242.510208,228.970886 243.719482,229.715408 245.239502,230.932449 
	C246.739792,224.953415 246.748444,219.769073 243.694366,215.310455 
	C238.830078,208.209152 233.578415,201.363495 228.286530,194.568665 
	C225.415222,190.881821 221.462891,189.242279 216.696014,188.519974 
	C186.120987,183.887070 165.393326,161.807648 162.366455,131.217346 
	C161.929291,126.799408 163.541885,124.769066 167.936401,124.225784 
	C184.519836,122.175575 199.455124,125.977943 212.168320,136.934387 
	C221.700592,145.149460 227.170532,156.202652 227.602585,168.409103 
	C228.074081,181.730072 236.731659,188.484467 245.519928,196.143326 
	C246.119049,189.300003 246.136536,182.548477 246.115875,175.797073 
	C246.044525,152.467972 230.987549,130.341843 209.353851,121.752571 
	C194.710068,115.938515 187.487976,102.927101 190.537521,87.750732 
	C191.142715,84.738861 191.868988,81.722404 196.000778,81.904068 
	C209.024765,82.476669 221.357040,92.763123 223.250259,105.641548 
	C224.438019,113.721359 226.881287,120.392487 233.707413,125.543732 
	C237.952560,128.747284 241.129303,133.366638 245.223602,137.827850 
	C247.093994,131.062134 245.933197,125.877190 241.731995,121.065071 
	C234.384674,112.649330 230.156570,103.193146 233.203156,91.681259 
	C235.773438,81.969162 241.492859,74.358627 248.916428,67.846939 
	C251.568680,65.520493 254.034668,66.283577 255.826981,68.651573 
	C259.530701,73.544899 263.606201,78.338181 266.291748,83.782784 
	C271.776764,94.902985 272.628693,106.119049 264.140228,116.581627 
	C262.050629,119.157150 259.820374,121.874207 258.698334,124.911667 
	C257.412384,128.392838 257.288483,132.303253 256.659698,136.027191 
	C257.554688,136.552856 258.449646,137.078522 259.344604,137.604187 
	C260.272461,136.091949 260.987579,134.383301 262.168213,133.104401 
	C265.665100,129.316467 269.594757,125.903862 272.867371,121.941566 
	C275.074158,119.269745 276.973236,116.092133 278.084808,112.825920 
	C279.782288,107.838058 279.761078,102.106712 282.107391,97.530846 
	C287.172302,87.653008 296.904755,84.153320 307.097198,82.050560 
	C310.487061,81.351219 311.730530,83.887726 312.447235,86.701027 
	C316.306702,101.850922 309.533783,116.118904 294.616364,121.418617 
	C283.680878,125.303665 276.226807,132.558548 268.824066,140.972473 
	C254.411224,157.354019 256.633514,176.560242 257.317383,196.031189 
	C266.063538,190.987427 273.280975,180.115570 274.022491,171.266815 
	C276.591766,140.607407 305.587738,118.779861 335.611328,124.812164 
	C338.601074,125.412849 340.104858,126.869034 339.937378,129.843735 
	C339.189789,143.122818 335.448608,155.459488 327.205475,166.007309 
	C317.843292,177.987122 305.034088,185.214905 290.279572,186.903503 
	C280.214264,188.055420 274.323151,193.306198 268.807434,200.360184 
	C266.243500,203.639160 263.731384,206.967239 261.364227,210.389587 
	C257.436157,216.068573 255.705902,222.218552 257.783539,229.632874 
	C258.861298,228.726944 259.630402,228.180756 260.281036,227.518250 
	C267.699982,219.964172 275.875397,213.362305 285.699890,209.279526 
	C295.996368,205.000626 306.509216,201.241196 316.937408,197.280792 
	C324.240204,194.507339 330.279877,190.680405 331.899994,182.120087 
	C332.507904,178.908005 334.101166,175.833405 335.536011,172.835327 
	C341.849640,159.643372 357.149017,151.171051 371.641998,152.592285 
	C374.660797,152.888306 376.558685,153.838150 377.041199,157.208801 
	C379.856262,176.873550 366.323029,195.478455 346.546967,197.762070 
	C335.272308,199.063995 325.821289,204.748154 315.550323,208.458725 
	C315.066193,208.633636 314.788391,209.379761 313.914581,210.501862 
	C319.426788,211.780334 324.495941,212.531113 329.252228,214.182816 
	C333.703796,215.728668 337.039673,215.135315 340.710724,212.164886 
	C343.723541,209.727051 347.365448,207.308929 351.058746,206.598206 
	C369.156769,203.115463 382.156830,211.721558 392.800385,225.293045 
	C394.877838,227.941956 394.474060,230.238754 391.905792,232.172440 
	C373.328613,246.159668 359.929047,247.419693 343.067261,235.675842 
	C340.801971,234.098129 339.089233,231.696106 337.220398,229.587387 
	C334.371643,226.372940 330.979858,224.643234 327.543030,224.814957 
	C329.368011,231.723938 332.151764,238.306183 332.668976,245.061951 
	C333.677856,258.239960 328.576813,261.090302 316.528900,255.122696 
	C305.112946,249.468140 299.499298,239.791245 297.018219,227.710129 
	C296.601624,225.681580 294.679108,222.457840 293.346497,222.403931 
	C289.347229,222.242126 284.227020,222.046448 281.471405,224.261490 
	C274.179871,230.122559 267.189209,236.697525 261.510284,244.088272 
	C258.469879,248.045166 257.672119,254.201294 257.144867,259.492737 
	C256.485443,266.110168 257.851288,267.030090 264.446259,267.066406 
	C273.945221,267.118683 283.445221,267.144226 292.943695,267.059631 
	C297.078979,267.022827 299.170135,268.693237 299.042236,272.992584 
	C298.958130,275.819641 299.117615,278.657104 299.245239,281.486450 
	C299.406769,285.067810 301.162872,286.982513 304.921356,286.937866 
	C309.920013,286.878418 314.932220,286.753998 319.914001,287.059235 
	C322.001526,287.187134 324.025909,288.345459 326.079010,289.035339 
	C325.006531,290.793213 324.328217,293.109863 322.784119,294.199219 
	C318.894287,296.943512 317.924896,300.463837 317.962646,304.966522 
	C318.120483,323.774292 318.018707,342.584198 318.057434,361.393219 
	C318.062561,363.887360 318.283295,366.384552 318.483398,368.873993 
	C318.817780,373.034058 320.969879,374.009216 324.593536,372.239105 
	C334.311279,367.492126 343.689880,361.887817 348.761353,352.074493 
	C353.535278,342.836914 357.084808,332.914856 360.549500,323.074371 
	C362.256775,318.225311 360.859314,313.749084 357.293121,309.278442 
	C347.462402,296.954559 348.561951,284.543060 358.382874,272.417938 
	C360.485535,269.821960 363.081360,268.257477 366.638916,270.526764 
	C377.347565,277.357544 382.710632,294.777802 376.508179,305.571533 
	C372.897339,311.855286 371.212677,318.378174 370.133392,325.326721 
	C365.708832,353.811798 350.150726,373.320923 323.106140,383.665070 
	C321.291992,384.358948 319.058960,386.590179 318.836792,388.337250 
	C318.064392,394.412506 317.827911,400.596558 317.992157,406.723053 
	C318.036041,408.359314 319.919220,410.810089 321.503265,411.385376 
	C327.113617,413.422852 332.960602,414.808258 338.716675,416.445038 
	C342.673065,417.570007 346.110413,416.780975 349.533508,414.371338 
	C374.330231,396.915710 393.094666,374.302124 406.429749,347.240234 
	C417.235565,325.311127 423.092224,301.939026 424.233215,277.510864 
	C425.562683,249.046829 426.550568,220.566315 419.804901,192.508728 
	C409.377441,149.137146 386.767029,113.950195 349.675140,88.613815 
	C312.553741,63.257256 271.610443,53.273941 227.183517,60.317802 
	C185.488129,66.928589 149.390717,84.367760 121.049095,116.912895 
	C100.731125,140.244339 88.266182,167.125504 82.170021,196.889267 
	C75.633575,228.802704 76.219444,261.270508 80.339622,293.395508 
	C86.440804,340.966461 108.574257,379.869507 146.622375,409.604309 
	C153.970001,415.346527 160.566895,417.467316 169.824905,414.137634 
	C185.472565,408.509979 185.605835,409.085602 185.049103,392.402008 
	C184.888382,387.585602 183.443283,384.702576 178.360046,382.827820 
	C151.616653,372.964508 137.125763,353.172546 132.727936,325.325256 
	C131.833893,319.664246 130.625519,313.668396 127.888962,308.759613 
	C121.377190,297.079041 123.539124,280.962372 133.669342,272.197296 
	C137.159012,269.177887 140.146820,268.975494 143.691467,272.260773 
	C153.880920,281.704651 154.687729,298.370667 145.651871,308.853912 
	C143.527405,311.318665 141.195374,315.133179 141.570541,317.982880 
	C144.688583,341.666229 154.140320,361.416809 177.398651,371.861206 
	C183.776001,374.725006 185.015503,374.064270 185.035110,367.013824 
	C185.088425,347.848633 184.852020,328.679688 185.171906,309.519623 
	C185.289566,302.472595 184.795090,296.274261 177.923767,292.349152 
	C177.008133,291.826111 175.949570,289.723785 176.276810,289.233398 
	C176.969269,288.195648 178.493103,287.241272 179.747986,287.139374 
	C183.392242,286.843445 187.072021,286.961273 190.737885,286.959290 
	C203.765091,286.952271 203.930161,286.959961 204.010468,273.885529 
	C204.041092,268.897125 206.034607,266.979156 210.857330,267.047058 
	C220.021408,267.176056 229.188751,267.104370 238.354553,267.068420 
	C245.332489,267.041046 245.820068,266.138245 246.177689,259.333405 
	C246.984161,243.987518 227.022507,225.723938 216.339493,222.422455 
	C214.789658,221.943481 213.041901,222.055527 211.382004,221.992401 
	C207.988144,221.863358 205.730087,223.289551 206.036911,226.929337 
	C207.193497,240.649246 189.635193,255.743073 177.423935,257.552155 
	C172.059021,258.346954 170.518356,257.277496 170.022141,251.808090 
	C169.109558,241.749146 171.762054,232.678085 177.473129,224.211304 
	C177.276810,224.089828 177.080475,223.968353 176.135025,223.951263 
M308.146667,318.500488 
	C308.136566,314.004883 308.168671,309.508698 308.106598,305.013794 
	C308.010803,298.074493 307.167297,297.124146 300.345428,297.109192 
	C290.036407,297.086548 279.726776,297.329437 269.417694,297.312195 
	C246.954712,297.274597 224.491455,297.196594 202.029373,297.008331 
	C197.397720,296.969513 194.957596,298.272064 194.979691,303.508850 
	C195.118057,336.310028 195.023849,369.112122 195.069763,401.913849 
	C195.077347,407.328949 196.376312,408.290192 201.745163,407.770874 
	C208.367554,407.130310 214.988556,406.357117 221.629089,406.048248 
	C233.878983,405.478516 233.985657,405.497192 234.026367,393.139313 
	C234.029099,392.306824 234.111603,391.467834 234.036102,390.642944 
	C233.534973,385.167023 236.688782,381.806061 241.003983,379.549744 
	C243.763168,378.106995 246.909683,377.166656 249.992188,376.625275 
	C259.213593,375.005707 267.851532,382.355164 267.960510,391.650177 
	C267.993683,394.480438 268.038940,397.311218 268.017822,400.141327 
	C267.990173,403.846344 269.932617,405.586945 273.487671,405.884094 
	C282.439941,406.632446 291.378296,407.610352 300.343567,408.121307 
	C307.912354,408.552765 308.132355,408.126526 308.134827,400.419769 
	C308.143402,373.446655 308.142548,346.473572 308.146667,318.500488 
M320.935120,422.337585 
	C296.260223,418.223694 271.509644,415.517303 246.398651,415.800934 
	C223.684601,416.057526 201.133408,417.060211 178.943863,422.277008 
	C176.897446,422.758087 174.956680,423.688507 172.390778,424.619263 
	C187.652267,436.725159 234.354462,448.842682 272.646210,443.389709 
	C292.281586,440.593506 311.304504,435.422180 328.988861,426.418579 
	C328.901398,425.768341 328.813934,425.118134 328.726471,424.467926 
	C326.402069,423.814667 324.077667,423.161438 320.935120,422.337585 
M213.268539,164.604431 
	C213.965759,164.986557 214.662979,165.368668 215.564438,165.862717 
	C215.684555,165.049515 215.906799,164.545929 215.799530,164.126678 
	C211.652573,147.921356 196.623260,135.428375 179.769028,134.142212 
	C175.216339,133.794800 173.648407,135.592682 174.911499,140.162643 
	C177.430466,149.276245 181.503952,157.614655 188.412994,164.235886 
	C194.136322,169.720795 200.649643,173.980988 209.479050,176.328125 
	C208.370987,174.527466 207.965256,173.623291 207.344879,172.904297 
	C205.177719,170.392609 202.415924,168.219574 200.913437,165.372528 
	C199.972946,163.590393 200.885651,160.830276 200.966827,158.508972 
	C203.070282,158.738556 205.448364,158.432800 207.206863,159.334839 
	C209.347977,160.433136 210.967682,162.547943 213.268539,164.604431 
M262.471558,276.197845 
	C248.013000,276.481659 233.554916,276.793243 219.095581,277.029175 
	C215.597702,277.086273 213.237640,278.174927 213.320190,282.157806 
	C213.397278,285.876007 215.677719,286.926605 218.940063,286.924011 
	C241.229233,286.906433 263.518402,286.905151 285.807587,286.909546 
	C288.902771,286.910156 290.960083,285.835999 291.013611,282.344574 
	C291.067535,278.824738 289.364349,277.182861 285.882233,277.069061 
	C278.406494,276.824799 270.933624,276.493988 262.471558,276.197845 
M244.470016,92.220634 
	C241.858994,99.362427 242.644577,105.969025 247.585022,111.914268 
	C250.948853,115.962234 252.469543,115.922073 255.481155,111.419418 
	C260.234131,104.313293 260.375458,96.625015 257.259369,89.009270 
	C256.165253,86.335175 253.483612,84.310631 251.526840,81.989494 
	C249.656723,84.233635 247.732239,86.435768 245.947159,88.745621 
	C245.355225,89.511559 245.121826,90.554565 244.470016,92.220634 
M133.284348,232.467026 
	C141.107437,233.692276 148.127289,232.071838 154.026001,226.562225 
	C158.021866,222.829926 157.805328,220.812851 152.638336,218.711777 
	C145.167557,215.673874 137.626526,215.660736 130.843719,220.484344 
	C128.188141,222.372864 126.267509,225.294846 124.012169,227.746155 
	C126.830482,229.263260 129.648804,230.780350 133.284348,232.467026 
M358.635986,216.893890 
	C355.753998,217.587494 352.688019,217.872040 350.031494,219.066910 
	C345.627991,221.047531 345.493744,223.238541 349.035065,226.545654 
	C356.221558,233.256897 367.014771,234.754440 376.010620,230.288406 
	C379.857025,228.378845 380.242859,226.430588 376.751831,223.630264 
	C371.772095,219.635788 366.353149,216.369690 358.635986,216.893890 
M141.280792,164.264557 
	C137.422287,164.133530 136.580963,166.367203 137.589600,169.468491 
	C140.588226,178.688553 146.549149,184.943771 156.229645,187.115128 
	C160.811371,188.142822 162.221664,186.513031 160.703903,182.067139 
	C157.583984,172.928192 151.745453,166.607056 141.280792,164.264557 
M360.215057,179.693085 
	C361.788635,176.605759 363.604767,173.610596 364.828339,170.390274 
	C365.397766,168.891678 365.468201,166.307053 364.569855,165.405975 
	C363.716278,164.549744 361.153870,164.805771 359.602875,165.334915 
	C351.294220,168.169403 346.123505,174.250305 343.124695,182.275909 
	C342.655609,183.531342 342.471283,185.842087 343.150726,186.360657 
	C344.234039,187.187454 346.466461,187.570724 347.662079,186.995865 
	C351.810028,185.001541 355.720581,182.513550 360.215057,179.693085 
M244.214615,397.518005 
	C244.901352,399.794342 244.979523,402.623047 246.422577,404.212891 
	C248.409546,406.402100 256.080994,404.984955 257.336273,402.792480 
	C259.386932,399.210876 257.805084,390.765320 254.790634,389.201202 
	C249.180634,386.290375 244.665329,389.468506 244.214615,397.518005 
M298.673706,96.712051 
	C293.587708,100.000389 289.674133,104.006248 289.356812,110.728920 
	C296.145721,110.317459 302.309021,103.227188 301.352539,97.590576 
	C301.270599,97.107697 299.959442,96.833405 298.673706,96.712051 
M184.963623,233.543030 
	C183.320206,236.760040 181.676788,239.977051 179.664536,243.916061 
	C188.284439,242.757904 194.237686,234.036469 191.238556,227.654221 
	C189.182877,229.540024 187.301392,231.266037 184.963623,233.543030 
M210.043121,101.541550 
	C209.134918,100.570709 208.358261,99.403557 207.282547,98.682693 
	C206.143600,97.919472 204.720169,97.580742 203.421005,97.056610 
	C203.030609,98.547173 202.132019,100.113777 202.341583,101.514580 
	C203.080215,106.451820 208.203339,110.399574 214.222656,110.189919 
	C212.871017,107.263672 211.680557,104.686386 210.043121,101.541550 
M361.945557,290.751648 
	C362.512177,293.620331 362.705261,296.636230 363.760071,299.312500 
	C364.652222,301.576080 366.449097,301.416687 367.801758,299.232147 
	C370.471954,294.919769 368.525116,287.372772 363.435059,284.280304 
	C362.917877,286.279388 362.447083,288.099213 361.945557,290.751648 
M316.104492,231.476212 
	C314.531860,230.306824 312.959229,229.137436 310.872833,227.586014 
	C310.987518,236.188019 315.298950,242.151718 321.545563,243.177246 
	C322.623932,238.200089 319.331512,235.208893 316.104492,231.476212 
M140.011566,289.150970 
	C139.467270,287.834076 138.922958,286.517181 138.195892,284.758118 
	C133.351852,291.097809 132.935760,296.252289 136.663605,301.004242 
	C140.971695,298.241425 139.847092,293.867737 140.011566,289.150970 
z"/>
<path fill="#000000" opacity="1.000000" stroke="none" 
	d="
M177.326462,224.362671 
	C171.762054,232.678085 169.109558,241.749146 170.022141,251.808090 
	C170.518356,257.277496 172.059021,258.346954 177.423935,257.552155 
	C189.635193,255.743073 207.193497,240.649246 206.036911,226.929337 
	C205.730087,223.289551 207.988144,221.863358 211.382004,221.992401 
	C213.041901,222.055527 214.789658,221.943481 216.339493,222.422455 
	C227.022507,225.723938 246.984161,243.987518 246.177689,259.333405 
	C245.820068,266.138245 245.332489,267.041046 238.354553,267.068420 
	C229.188751,267.104370 220.021408,267.176056 210.857330,267.047058 
	C206.034607,266.979156 204.041092,268.897125 204.010468,273.885529 
	C203.930161,286.959961 203.765091,286.952271 190.737885,286.959290 
	C187.072021,286.961273 183.392242,286.843445 179.747986,287.139374 
	C178.493103,287.241272 176.969269,288.195648 176.276810,289.233398 
	C175.949570,289.723785 177.008133,291.826111 177.923767,292.349152 
	C184.795090,296.274261 185.289566,302.472595 185.171906,309.519623 
	C184.852020,328.679688 185.088425,347.848633 185.035110,367.013824 
	C185.015503,374.064270 183.776001,374.725006 177.398651,371.861206 
	C154.140320,361.416809 144.688583,341.666229 141.570541,317.982880 
	C141.195374,315.133179 143.527405,311.318665 145.651871,308.853912 
	C154.687729,298.370667 153.880920,281.704651 143.691467,272.260773 
	C140.146820,268.975494 137.159012,269.177887 133.669342,272.197296 
	C123.539124,280.962372 121.377190,297.079041 127.888962,308.759613 
	C130.625519,313.668396 131.833893,319.664246 132.727936,325.325256 
	C137.125763,353.172546 151.616653,372.964508 178.360046,382.827820 
	C183.443283,384.702576 184.888382,387.585602 185.049103,392.402008 
	C185.605835,409.085602 185.472565,408.509979 169.824905,414.137634 
	C160.566895,417.467316 153.970001,415.346527 146.622375,409.604309 
	C108.574257,379.869507 86.440804,340.966461 80.339622,293.395508 
	C76.219444,261.270508 75.633575,228.802704 82.170021,196.889267 
	C88.266182,167.125504 100.731125,140.244339 121.049095,116.912895 
	C149.390717,84.367760 185.488129,66.928589 227.183517,60.317802 
	C271.610443,53.273941 312.553741,63.257256 349.675140,88.613815 
	C386.767029,113.950195 409.377441,149.137146 419.804901,192.508728 
	C426.550568,220.566315 425.562683,249.046829 424.233215,277.510864 
	C423.092224,301.939026 417.235565,325.311127 406.429749,347.240234 
	C393.094666,374.302124 374.330231,396.915710 349.533508,414.371338 
	C346.110413,416.780975 342.673065,417.570007 338.716675,416.445038 
	C332.960602,414.808258 327.113617,413.422852 321.503265,411.385376 
	C319.919220,410.810089 318.036041,408.359314 317.992157,406.723053 
	C317.827911,400.596558 318.064392,394.412506 318.836792,388.337250 
	C319.058960,386.590179 321.291992,384.358948 323.106140,383.665070 
	C350.150726,373.320923 365.708832,353.811798 370.133392,325.326721 
	C371.212677,318.378174 372.897339,311.855286 376.508179,305.571533 
	C382.710632,294.777802 377.347565,277.357544 366.638916,270.526764 
	C363.081360,268.257477 360.485535,269.821960 358.382874,272.417938 
	C348.561951,284.543060 347.462402,296.954559 357.293121,309.278442 
	C360.859314,313.749084 362.256775,318.225311 360.549500,323.074371 
	C357.084808,332.914856 353.535278,342.836914 348.761353,352.074493 
	C343.689880,361.887817 334.311279,367.492126 324.593536,372.239105 
	C320.969879,374.009216 318.817780,373.034058 318.483398,368.873993 
	C318.283295,366.384552 318.062561,363.887360 318.057434,361.393219 
	C318.018707,342.584198 318.120483,323.774292 317.962646,304.966522 
	C317.924896,300.463837 318.894287,296.943512 322.784119,294.199219 
	C324.328217,293.109863 325.006531,290.793213 326.079010,289.035339 
	C324.025909,288.345459 322.001526,287.187134 319.914001,287.059235 
	C314.932220,286.753998 309.920013,286.878418 304.921356,286.937866 
	C301.162872,286.982513 299.406769,285.067810 299.245239,281.486450 
	C299.117615,278.657104 298.958130,275.819641 299.042236,272.992584 
	C299.170135,268.693237 297.078979,267.022827 292.943695,267.059631 
	C283.445221,267.144226 273.945221,267.118683 264.446259,267.066406 
	C257.851288,267.030090 256.485443,266.110168 257.144867,259.492737 
	C257.672119,254.201294 258.469879,248.045166 261.510284,244.088272 
	C267.189209,236.697525 274.179871,230.122559 281.471405,224.261490 
	C284.227020,222.046448 289.347229,222.242126 293.346497,222.403931 
	C294.679108,222.457840 296.601624,225.681580 297.018219,227.710129 
	C299.499298,239.791245 305.112946,249.468140 316.528900,255.122696 
	C328.576813,261.090302 333.677856,258.239960 332.668976,245.061951 
	C332.151764,238.306183 329.368011,231.723938 327.543030,224.814957 
	C330.979858,224.643234 334.371643,226.372940 337.220398,229.587387 
	C339.089233,231.696106 340.801971,234.098129 343.067261,235.675842 
	C359.929047,247.419693 373.328613,246.159668 391.905792,232.172440 
	C394.474060,230.238754 394.877838,227.941956 392.800385,225.293045 
	C382.156830,211.721558 369.156769,203.115463 351.058746,206.598206 
	C347.365448,207.308929 343.723541,209.727051 340.710724,212.164886 
	C337.039673,215.135315 333.703796,215.728668 329.252228,214.182816 
	C324.495941,212.531113 319.426788,211.780334 313.914581,210.501862 
	C314.788391,209.379761 315.066193,208.633636 315.550323,208.458725 
	C325.821289,204.748154 335.272308,199.063995 346.546967,197.762070 
	C366.323029,195.478455 379.856262,176.873550 377.041199,157.208801 
	C376.558685,153.838150 374.660797,152.888306 371.641998,152.592285 
	C357.149017,151.171051 341.849640,159.643372 335.536011,172.835327 
	C334.101166,175.833405 332.507904,178.908005 331.899994,182.120087 
	C330.279877,190.680405 324.240204,194.507339 316.937408,197.280792 
	C306.509216,201.241196 295.996368,205.000626 285.699890,209.279526 
	C275.875397,213.362305 267.699982,219.964172 260.281036,227.518250 
	C259.630402,228.180756 258.861298,228.726944 257.783539,229.632874 
	C255.705902,222.218552 257.436157,216.068573 261.364227,210.389587 
	C263.731384,206.967239 266.243500,203.639160 268.807434,200.360184 
	C274.323151,193.306198 280.214264,188.055420 290.279572,186.903503 
	C305.034088,185.214905 317.843292,177.987122 327.205475,166.007309 
	C335.448608,155.459488 339.189789,143.122818 339.937378,129.843735 
	C340.104858,126.869034 338.601074,125.412849 335.611328,124.812164 
	C305.587738,118.779861 276.591766,140.607407 274.022491,171.266815 
	C273.280975,180.115570 266.063538,190.987427 257.317383,196.031189 
	C256.633514,176.560242 254.411224,157.354019 268.824066,140.972473 
	C276.226807,132.558548 283.680878,125.303665 294.616364,121.418617 
	C309.533783,116.118904 316.306702,101.850922 312.447235,86.701027 
	C311.730530,83.887726 310.487061,81.351219 307.097198,82.050560 
	C296.904755,84.153320 287.172302,87.653008 282.107391,97.530846 
	C279.761078,102.106712 279.782288,107.838058 278.084808,112.825920 
	C276.973236,116.092133 275.074158,119.269745 272.867371,121.941566 
	C269.594757,125.903862 265.665100,129.316467 262.168213,133.104401 
	C260.987579,134.383301 260.272461,136.091949 259.344604,137.604187 
	C258.449646,137.078522 257.554688,136.552856 256.659698,136.027191 
	C257.288483,132.303253 257.412384,128.392838 258.698334,124.911667 
	C259.820374,121.874207 262.050629,119.157150 264.140228,116.581627 
	C272.628693,106.119049 271.776764,94.902985 266.291748,83.782784 
	C263.606201,78.338181 259.530701,73.544899 255.826981,68.651573 
	C254.034668,66.283577 251.568680,65.520493 248.916428,67.846939 
	C241.492859,74.358627 235.773438,81.969162 233.203156,91.681259 
	C230.156570,103.193146 234.384674,112.649330 241.731995,121.065071 
	C245.933197,125.877190 247.093994,131.062134 245.223602,137.827850 
	C241.129303,133.366638 237.952560,128.747284 233.707413,125.543732 
	C226.881287,120.392487 224.438019,113.721359 223.250259,105.641548 
	C221.357040,92.763123 209.024765,82.476669 196.000778,81.904068 
	C191.868988,81.722404 191.142715,84.738861 190.537521,87.750732 
	C187.487976,102.927101 194.710068,115.938515 209.353851,121.752571 
	C230.987549,130.341843 246.044525,152.467972 246.115875,175.797073 
	C246.136536,182.548477 246.119049,189.300003 245.519928,196.143326 
	C236.731659,188.484467 228.074081,181.730072 227.602585,168.409103 
	C227.170532,156.202652 221.700592,145.149460 212.168320,136.934387 
	C199.455124,125.977943 184.519836,122.175575 167.936401,124.225784 
	C163.541885,124.769066 161.929291,126.799408 162.366455,131.217346 
	C165.393326,161.807648 186.120987,183.887070 216.696014,188.519974 
	C221.462891,189.242279 225.415222,190.881821 228.286530,194.568665 
	C233.578415,201.363495 238.830078,208.209152 243.694366,215.310455 
	C246.748444,219.769073 246.739792,224.953415 245.239502,230.932449 
	C243.719482,229.715408 242.510208,228.970886 241.579330,227.967987 
	C229.343094,214.785049 214.089798,206.592880 197.277954,200.871262 
	C191.446945,198.886765 185.765961,196.464920 179.991348,194.310165 
	C175.502945,192.635345 173.117783,189.421860 172.207092,184.762939 
	C171.603546,181.675446 170.801300,178.553207 169.556015,175.676849 
	C162.205063,158.697922 148.682358,152.678192 131.062866,152.585983 
	C126.813332,152.563736 125.045792,154.871414 125.239334,158.919647 
	C126.260307,180.275436 134.059174,193.426224 156.664993,197.628326 
	C168.411484,199.811829 178.633453,204.804077 189.667389,209.528473 
	C182.855560,211.655075 176.688278,213.809525 170.377335,215.390717 
	C168.785889,215.789444 166.338364,214.834610 164.955048,213.690628 
	C145.002899,197.190430 121.892319,208.484879 109.626259,226.191360 
	C107.813988,228.807419 108.518898,230.886124 110.817940,232.670410 
	C128.691254,246.541840 147.472168,248.418289 164.884201,230.665085 
	C167.841721,227.649628 172.345581,226.150787 176.619949,224.028198 
	C177.104874,224.105133 177.326462,224.362671 177.326462,224.362671 
z"/>
<path fill="#000100" opacity="1.000000" stroke="none" 
	d="
M308.145996,319.000488 
	C308.142548,346.473572 308.143402,373.446655 308.134827,400.419769 
	C308.132355,408.126526 307.912354,408.552765 300.343567,408.121307 
	C291.378296,407.610352 282.439941,406.632446 273.487671,405.884094 
	C269.932617,405.586945 267.990173,403.846344 268.017822,400.141327 
	C268.038940,397.311218 267.993683,394.480438 267.960510,391.650177 
	C267.851532,382.355164 259.213593,375.005707 249.992188,376.625275 
	C246.909683,377.166656 243.763168,378.106995 241.003983,379.549744 
	C236.688782,381.806061 233.534973,385.167023 234.036102,390.642944 
	C234.111603,391.467834 234.029099,392.306824 234.026367,393.139313 
	C233.985657,405.497192 233.878983,405.478516 221.629089,406.048248 
	C214.988556,406.357117 208.367554,407.130310 201.745163,407.770874 
	C196.376312,408.290192 195.077347,407.328949 195.069763,401.913849 
	C195.023849,369.112122 195.118057,336.310028 194.979691,303.508850 
	C194.957596,298.272064 197.397720,296.969513 202.029373,297.008331 
	C224.491455,297.196594 246.954712,297.274597 269.417694,297.312195 
	C279.726776,297.329437 290.036407,297.086548 300.345428,297.109192 
	C307.167297,297.124146 308.010803,298.074493 308.106598,305.013794 
	C308.168671,309.508698 308.136566,314.004883 308.145996,319.000488 
M209.153702,348.769226 
	C209.146240,350.258270 209.126816,351.747345 209.133255,353.236328 
	C209.170029,361.733551 210.548721,363.085144 218.928574,362.757141 
	C221.765564,362.646088 225.209091,362.728760 225.402985,358.957520 
	C225.681580,353.539124 227.783295,347.761871 223.660080,342.840881 
	C223.158081,342.241760 221.813248,342.211792 220.847641,342.167786 
	C219.033157,342.085144 217.203308,342.298523 215.392487,342.185760 
	C211.301331,341.931122 209.062439,343.578247 209.153702,348.769226 
M293.112854,322.403198 
	C293.129913,322.072327 293.143036,321.741211 293.164581,321.410614 
	C293.900574,310.104645 293.798920,309.992432 282.811279,309.989197 
	C276.502625,309.987366 276.141266,310.338989 275.913757,316.701477 
	C275.499390,328.291809 276.482605,329.230774 287.331299,329.069427 
	C291.535248,329.006866 293.591370,327.508392 293.112854,322.403198 
M250.869125,362.312744 
	C258.761414,362.496246 259.205994,361.877319 259.616058,350.135193 
	C259.800598,344.850037 258.321350,343.246948 253.039429,343.007904 
	C244.612839,342.626556 242.753815,343.590576 242.507980,348.468903 
	C241.846558,361.594391 241.924561,361.737274 250.869125,362.312744 
M254.096985,310.112366 
	C252.268326,310.107910 250.439194,310.127991 248.611099,310.093445 
	C245.674332,310.038025 243.052887,310.700745 242.913818,314.181702 
	C242.722809,318.962738 240.310196,324.059113 244.464294,328.360016 
	C244.764114,328.670410 245.390961,328.679565 245.873535,328.796661 
	C255.354050,331.096710 258.772003,328.513397 258.990143,318.897461 
	C259.016541,317.734314 258.979614,316.556458 259.151489,315.412384 
	C259.648621,312.103363 258.389343,310.279663 254.096985,310.112366 
M221.999237,310.111084 
	C209.760056,309.853973 209.760056,309.853973 210.031067,321.478729 
	C210.164948,327.221375 211.203278,328.320679 217.016861,328.875000 
	C224.576172,329.595795 225.577957,328.833893 226.493484,321.243317 
	C226.750397,319.113251 227.177338,316.774902 226.564209,314.836426 
	C226.008850,313.080597 224.142242,311.739502 221.999237,310.111084 
M286.082062,362.201752 
	C292.532593,362.177612 292.882935,361.842896 292.992188,355.506317 
	C293.017975,354.009827 293.012787,352.512543 293.001526,351.015747 
	C292.945587,343.584259 291.540955,342.275604 284.163147,342.765411 
	C278.006348,343.174133 277.149872,344.087372 277.059448,350.362457 
	C277.042664,351.526489 277.044067,352.690979 277.050903,353.855164 
	C277.096802,361.661102 277.374969,361.943604 286.082062,362.201752 
M209.051315,389.135132 
	C209.308105,394.736847 213.414062,393.976685 217.037888,393.924957 
	C220.383682,393.877167 223.152054,392.821350 222.915482,388.849731 
	C222.663513,384.620117 226.751480,379.066528 220.610397,376.485596 
	C213.146484,373.348724 208.963379,376.641541 208.972321,384.742279 
	C208.973587,385.903717 208.998718,387.065125 209.051315,389.135132 
M279.008636,385.429016 
	C279.164368,392.973511 280.663269,394.615570 287.418915,394.642792 
	C291.767517,394.660309 292.785889,392.970703 292.921265,385.512543 
	C292.933350,384.846680 292.954956,384.180786 292.953522,383.514954 
	C292.939392,376.979706 291.888245,375.932587 285.443787,376.024170 
	C279.667023,376.106293 279.107178,376.843689 279.008636,385.429016 
z"/>
<path fill="#000000" opacity="1.000000" stroke="none" 
	d="
M321.344177,422.422913 
	C324.077667,423.161438 326.402069,423.814667 328.726471,424.467926 
	C328.813934,425.118134 328.901398,425.768341 328.988861,426.418579 
	C311.304504,435.422180 292.281586,440.593506 272.646210,443.389709 
	C234.354462,448.842682 187.652267,436.725159 172.390778,424.619263 
	C174.956680,423.688507 176.897446,422.758087 178.943863,422.277008 
	C201.133408,417.060211 223.684601,416.057526 246.398651,415.800934 
	C271.509644,415.517303 296.260223,418.223694 321.344177,422.422913 
z"/>
<path fill="#000100" opacity="1.000000" stroke="none" 
	d="
M213.040726,164.413742 
	C210.967682,162.547943 209.347977,160.433136 207.206863,159.334839 
	C205.448364,158.432800 203.070282,158.738556 200.966827,158.508972 
	C200.885651,160.830276 199.972946,163.590393 200.913437,165.372528 
	C202.415924,168.219574 205.177719,170.392609 207.344879,172.904297 
	C207.965256,173.623291 208.370987,174.527466 209.479050,176.328125 
	C200.649643,173.980988 194.136322,169.720795 188.412994,164.235886 
	C181.503952,157.614655 177.430466,149.276245 174.911499,140.162643 
	C173.648407,135.592682 175.216339,133.794800 179.769028,134.142212 
	C196.623260,135.428375 211.652573,147.921356 215.799530,164.126678 
	C215.906799,164.545929 215.684555,165.049515 215.564438,165.862717 
	C214.662979,165.368668 213.965759,164.986557 213.040726,164.413742 
z"/>
<path fill="#000101" opacity="1.000000" stroke="none" 
	d="
M262.965576,276.198242 
	C270.933624,276.493988 278.406494,276.824799 285.882233,277.069061 
	C289.364349,277.182861 291.067535,278.824738 291.013611,282.344574 
	C290.960083,285.835999 288.902771,286.910156 285.807587,286.909546 
	C263.518402,286.905151 241.229233,286.906433 218.940063,286.924011 
	C215.677719,286.926605 213.397278,285.876007 213.320190,282.157806 
	C213.237640,278.174927 215.597702,277.086273 219.095581,277.029175 
	C233.554916,276.793243 248.013000,276.481659 262.965576,276.198242 
z"/>
<path fill="#000100" opacity="1.000000" stroke="none" 
	d="
M293.009613,176.008362 
	C295.342987,173.413635 297.795227,170.913589 299.965363,168.188828 
	C301.276062,166.543152 302.610291,164.667435 303.120636,162.685638 
	C304.136963,158.738998 301.259644,156.240280 297.676422,158.124573 
	C294.196136,159.954727 291.200623,162.706635 287.537537,165.070770 
	C287.082886,165.087769 286.770355,164.825958 286.770355,164.825958 
	C291.252380,148.152725 305.917816,135.690628 322.002991,134.886658 
	C327.499298,134.611938 328.641998,135.868393 327.706085,141.157501 
	C325.184631,155.407440 308.017578,172.996567 293.376892,175.971130 
	C292.999146,175.998520 293.009613,176.008362 293.009613,176.008362 
z"/>
<path fill="#000100" opacity="1.000000" stroke="none" 
	d="
M244.597260,91.845764 
	C245.121826,90.554565 245.355225,89.511559 245.947159,88.745621 
	C247.732239,86.435768 249.656723,84.233635 251.526840,81.989494 
	C253.483612,84.310631 256.165253,86.335175 257.259369,89.009270 
	C260.375458,96.625015 260.234131,104.313293 255.481155,111.419418 
	C252.469543,115.922073 250.948853,115.962234 247.585022,111.914268 
	C242.644577,105.969025 241.858994,99.362427 244.597260,91.845764 
z"/>
<path fill="#000101" opacity="1.000000" stroke="none" 
	d="
M132.875732,232.382233 
	C129.648804,230.780350 126.830482,229.263260 124.012161,227.746155 
	C126.267509,225.294846 128.188141,222.372864 130.843719,220.484344 
	C137.626526,215.660736 145.167557,215.673874 152.638336,218.711777 
	C157.805328,220.812851 158.021866,222.829926 154.026001,226.562225 
	C148.127289,232.071838 141.107437,233.692276 132.875732,232.382233 
z"/>
<path fill="#000100" opacity="1.000000" stroke="none" 
	d="
M359.086121,216.886795 
	C366.353149,216.369690 371.772095,219.635788 376.751831,223.630264 
	C380.242859,226.430588 379.857025,228.378845 376.010620,230.288406 
	C367.014771,234.754440 356.221558,233.256897 349.035065,226.545654 
	C345.493744,223.238541 345.627991,221.047531 350.031494,219.066910 
	C352.688019,217.872040 355.753998,217.587494 359.086121,216.886795 
z"/>
<path fill="#000101" opacity="1.000000" stroke="none" 
	d="
M141.663849,164.324554 
	C151.745453,166.607056 157.583984,172.928192 160.703903,182.067139 
	C162.221664,186.513031 160.811371,188.142822 156.229645,187.115128 
	C146.549149,184.943771 140.588226,178.688553 137.589600,169.468491 
	C136.580963,166.367203 137.422287,164.133530 141.663849,164.324554 
z"/>
<path fill="#000101" opacity="1.000000" stroke="none" 
	d="
M359.968262,179.953232 
	C355.720581,182.513550 351.810028,185.001541 347.662079,186.995865 
	C346.466461,187.570724 344.234039,187.187454 343.150726,186.360657 
	C342.471283,185.842087 342.655609,183.531342 343.124695,182.275909 
	C346.123505,174.250305 351.294220,168.169403 359.602875,165.334915 
	C361.153870,164.805771 363.716278,164.549744 364.569855,165.405975 
	C365.468201,166.307053 365.397766,168.891678 364.828339,170.390274 
	C363.604767,173.610596 361.788635,176.605759 359.968262,179.953232 
z"/>
<path fill="#000101" opacity="1.000000" stroke="none" 
	d="
M244.216980,397.079956 
	C244.665329,389.468506 249.180634,386.290375 254.790634,389.201202 
	C257.805084,390.765320 259.386932,399.210876 257.336273,402.792480 
	C256.080994,404.984955 248.409546,406.402100 246.422577,404.212891 
	C244.979523,402.623047 244.901352,399.794342 244.216980,397.079956 
z"/>
<path fill="#000101" opacity="1.000000" stroke="none" 
	d="
M298.946503,96.587128 
	C299.959442,96.833405 301.270599,97.107697 301.352539,97.590576 
	C302.309021,103.227188 296.145721,110.317459 289.356812,110.728920 
	C289.674133,104.006248 293.587708,100.000389 298.946503,96.587128 
z"/>
<path fill="#000100" opacity="1.000000" stroke="none" 
	d="
M185.191757,233.267532 
	C187.301392,231.266037 189.182877,229.540024 191.238556,227.654221 
	C194.237686,234.036469 188.284439,242.757904 179.664536,243.916061 
	C181.676788,239.977051 183.320206,236.760040 185.191757,233.267532 
z"/>
<path fill="#000100" opacity="1.000000" stroke="none" 
	d="
M210.266617,101.825333 
	C211.680557,104.686386 212.871017,107.263672 214.222656,110.189919 
	C208.203339,110.399574 203.080215,106.451820 202.341583,101.514580 
	C202.132019,100.113777 203.030609,98.547173 203.421005,97.056610 
	C204.720169,97.580742 206.143600,97.919472 207.282547,98.682693 
	C208.358261,99.403557 209.134918,100.570709 210.266617,101.825333 
z"/>
<path fill="#000101" opacity="1.000000" stroke="none" 
	d="
M361.960938,290.335327 
	C362.447083,288.099213 362.917877,286.279388 363.435059,284.280304 
	C368.525116,287.372772 370.471954,294.919769 367.801758,299.232147 
	C366.449097,301.416687 364.652222,301.576080 363.760071,299.312500 
	C362.705261,296.636230 362.512177,293.620331 361.960938,290.335327 
z"/>
<path fill="#000101" opacity="1.000000" stroke="none" 
	d="
M316.347748,231.730042 
	C319.331512,235.208893 322.623932,238.200089 321.545563,243.177246 
	C315.298950,242.151718 310.987518,236.188019 310.872833,227.586014 
	C312.959229,229.137436 314.531860,230.306824 316.347748,231.730042 
z"/>
<path fill="#000101" opacity="1.000000" stroke="none" 
	d="
M140.039291,289.554657 
	C139.847092,293.867737 140.971695,298.241425 136.663605,301.004242 
	C132.935760,296.252289 133.351852,291.097809 138.195892,284.758118 
	C138.922958,286.517181 139.467270,287.834076 140.039291,289.554657 
z"/>
<path fill="#000000" opacity="1.000000" stroke="none" 
	d="
M176.994507,223.976013 
	C177.080475,223.968353 177.276810,224.089828 177.399796,224.286987 
	C177.326462,224.362671 177.104874,224.105133 176.994507,223.976013 
z"/>
<path fill="#000100" opacity="1.000000" stroke="none" 
	d="
M287.238525,165.219391 
	C287.152496,165.245529 286.910858,165.140045 286.719788,164.930252 
	C286.770355,164.825958 287.082886,165.087769 287.238525,165.219391 
z"/>
<path fill="#000100" opacity="1.000000" stroke="none" 
	d="
M292.993225,175.992676 
	C292.987274,175.986816 292.961090,176.019089 292.985352,176.013733 
	C293.009613,176.008362 292.999146,175.998520 292.993225,175.992676 
z"/>
<path fill="#032B21" opacity="1.000000" stroke="none" 
	d="
M209.166367,348.317505 
	C209.062439,343.578247 211.301331,341.931122 215.392487,342.185760 
	C217.203308,342.298523 219.033157,342.085144 220.847641,342.167786 
	C221.813248,342.211792 223.158081,342.241760 223.660080,342.840881 
	C227.783295,347.761871 225.681580,353.539124 225.402985,358.957520 
	C225.209091,362.728760 221.765564,362.646088 218.928574,362.757141 
	C210.548721,363.085144 209.170029,361.733551 209.133255,353.236328 
	C209.126816,351.747345 209.146240,350.258270 209.166367,348.317505 
z"/>
<path fill="#032C22" opacity="1.000000" stroke="none" 
	d="
M293.102417,322.788513 
	C293.591370,327.508392 291.535248,329.006866 287.331299,329.069427 
	C276.482605,329.230774 275.499390,328.291809 275.913757,316.701477 
	C276.141266,310.338989 276.502625,309.987366 282.811279,309.989197 
	C293.798920,309.992432 293.900574,310.104645 293.164581,321.410614 
	C293.143036,321.741211 293.129913,322.072327 293.102417,322.788513 
z"/>
<path fill="#032C22" opacity="1.000000" stroke="none" 
	d="
M250.453583,362.286682 
	C241.924561,361.737274 241.846558,361.594391 242.507980,348.468903 
	C242.753815,343.590576 244.612839,342.626556 253.039429,343.007904 
	C258.321350,343.246948 259.800598,344.850037 259.616058,350.135193 
	C259.205994,361.877319 258.761414,362.496246 250.453583,362.286682 
z"/>
<path fill="#032C22" opacity="1.000000" stroke="none" 
	d="
M254.523499,310.135162 
	C258.389343,310.279663 259.648621,312.103363 259.151489,315.412384 
	C258.979614,316.556458 259.016541,317.734314 258.990143,318.897461 
	C258.772003,328.513397 255.354050,331.096710 245.873535,328.796661 
	C245.390961,328.679565 244.764114,328.670410 244.464294,328.360016 
	C240.310196,324.059113 242.722809,318.962738 242.913818,314.181702 
	C243.052887,310.700745 245.674332,310.038025 248.611099,310.093445 
	C250.439194,310.127991 252.268326,310.107910 254.523499,310.135162 
z"/>
<path fill="#032C22" opacity="1.000000" stroke="none" 
	d="
M222.426514,310.163330 
	C224.142242,311.739502 226.008850,313.080597 226.564209,314.836426 
	C227.177338,316.774902 226.750397,319.113251 226.493484,321.243317 
	C225.577957,328.833893 224.576172,329.595795 217.016861,328.875000 
	C211.203278,328.320679 210.164948,327.221375 210.031067,321.478729 
	C209.760056,309.853973 209.760056,309.853973 222.426514,310.163330 
z"/>
<path fill="#032C22" opacity="1.000000" stroke="none" 
	d="
M285.648804,362.193573 
	C277.374969,361.943604 277.096802,361.661102 277.050903,353.855164 
	C277.044067,352.690979 277.042664,351.526489 277.059448,350.362457 
	C277.149872,344.087372 278.006348,343.174133 284.163147,342.765411 
	C291.540955,342.275604 292.945587,343.584259 293.001526,351.015747 
	C293.012787,352.512543 293.017975,354.009827 292.992188,355.506317 
	C292.882935,361.842896 292.532593,362.177612 285.648804,362.193573 
z"/>
<path fill="#042B22" opacity="1.000000" stroke="none" 
	d="
M209.032074,388.680847 
	C208.998718,387.065125 208.973587,385.903717 208.972321,384.742279 
	C208.963379,376.641541 213.146484,373.348724 220.610397,376.485596 
	C226.751480,379.066528 222.663513,384.620117 222.915482,388.849731 
	C223.152054,392.821350 220.383682,393.877167 217.037888,393.924957 
	C213.414062,393.976685 209.308105,394.736847 209.032074,388.680847 
z"/>
<path fill="#042B22" opacity="1.000000" stroke="none" 
	d="
M279.006927,384.967072 
	C279.107178,376.843689 279.667023,376.106293 285.443787,376.024170 
	C291.888245,375.932587 292.939392,376.979706 292.953522,383.514954 
	C292.954956,384.180786 292.933350,384.846680 292.921265,385.512543 
	C292.785889,392.970703 291.767517,394.660309 287.418915,394.642792 
	C280.663269,394.615570 279.164368,392.973511 279.006927,384.967072 
z"/>
</svg>